<?xml version="1.0" encoding="UTF-8"?>
<svg xmlns="http://www.w3.org/2000/svg" width="256" height="256" viewBox="0 0 256 256" fill="none">
  <!-- Luogu：山峰 + 小旗（纯色） -->
  <path fill="#6B7280" d="M26 212a12 12 0 0 1 2.6-7.4l84-110a12 12 0 0 1 19 0l34 44 18-23a12 12 0 0 1 19 0l32 41a12 12 0 0 1 2.6 7.4 12 12 0 0 1-12 12H38a12 12 0 0 1-12-12Zm102-94-58 76h116l-20-26-14 18a12 12 0 0 1-19 0l-26-34Z"/>
  <path fill="#6B7280" d="M176 40a10 10 0 0 1 10 10v10h22a6 6 0 0 1 3.2 11.1l-24 15a10 10 0 0 1-15.4-8.5V50a10 10 0 0 1 4.2-8.1A10 10 0 0 1 176 40Z"/>
</svg>
