<?xml version="1.0" encoding="UTF-8"?>
<svg xmlns="http://www.w3.org/2000/svg" width="256" height="256" viewBox="0 0 256 256">
  <path d="M 26.00 34.50 L 22.00 34.50 L 14.50 27.00 L 14.50 23.00 L 30.00 6.50 L 32.50 9.00 L 31.50 13.00 L 21.50 24.00 L 21.50 26.00 L 27.50 31.00 L 26.00 34.50 Z M 44.00 54.50 L 39.00 53.50 L 30.00 41.50 L 18.00 54.50 L 12.50 53.00 L 34.50 29.00 L 34.50 27.00 L 27.50 22.00 L 29.00 20.50 L 39.00 21.50 L 42.50 26.00 L 42.50 29.00 L 32.50 40.00 L 38.50 43.00 L 45.50 53.00 L 44.00 54.50 Z"
        fill="#6B7280"
        fill-rule="evenodd"
        transform="matrix(4.916667 0 0 4.916667 -14.583333 -21.958333)"/>
</svg>
